# Exported from Wings 3D 2.1.5
mtllib Tree.mtl
o cone2
#26 vertices, 48 faces
v 38.63427200 53.33945074 37.92698934
v 11.93864661 16.59607460 37.92698934
v -31.25578261 30.63079542 37.92698934
v -31.25578261 76.04810605 37.92698934
v 11.93864661 90.08282687 37.92698934
v 1.3988810e-16 53.33945074 115.19553334
v 21.94426650 53.33945074 37.92698934
v 6.78115128 32.46921309 37.92698934
v -17.75328452 40.44093452 37.92698934
v -17.75328452 66.23796695 37.92698934
v 6.78115128 74.20968838 37.92698934
v 50.74752422 53.33945074 -15.91736660
v 15.68184741 5.07568714 -15.91736660
v -41.05560951 23.51080441 -15.91736660
v -41.05560951 83.16809706 -15.91736660
v 15.68184741 101.60321433 -15.91736660
v 13.17405729 53.33945074 -15.91736660
v 4.07100759 40.81017771 -15.91736660
v -10.65803623 45.59593415 -15.91736660
v -10.65803623 61.08296732 -15.91736660
v 4.07100759 65.86872376 -15.91736660
v 13.17405729 53.33945074 -67.05835213
v 4.07100759 40.81017771 -67.05835213
v -10.65803623 45.59593415 -67.05835213
v -10.65803623 61.08296732 -67.05835213
v 4.07100759 65.86872376 -67.05835213
vn 0.55468777 -3.0455877e-17 -0.83205858
vn 0.23738965 -0.73061023 -0.64019907
vn -0.33901684 -0.24631015 -0.90796415
vn -0.62149418 0.45154195 -0.64019907
vn 0.12949291 0.39853820 -0.90796415
vn -1.1842666e-16 -1.7763999e-16 1.00000000
vn 0.90320531 -1.2633962e-16 -0.42920877
vn 4.8352614e-2 -0.63038641 -0.77477416
vn -0.62806763 -0.45631784 -0.63032141
vn -0.62806763 0.45631784 -0.63032141
vn 0.23990049 0.73833778 -0.63032141
vn 0.55847114 -7.6749575e-17 -0.82952395
vn 0.49433389 -0.80309408 -0.33267688
vn -0.62806763 -0.45631784 -0.63032141
vn -0.62806763 0.45631784 -0.63032141
vn 0.23990049 0.73833778 -0.63032141
vn 0.73334923 -1.7611708e-16 -0.67985212
vn 4.0500998e-2 -0.52802272 -0.84826392
vn -0.50883947 -0.36969351 -0.77743752
vn -0.50883947 0.36969351 -0.77743752
vn 0.19435938 0.59817667 -0.77743752
vn 0.62896017 -2.7037425e-16 -0.77743752
vn 0.40914637 -0.66469857 -0.62512003
vn -0.77295309 -0.56158329 -0.29524181
vn -0.38404221 0.27902300 -0.88014643
vn 0.29524181 0.90866085 -0.29524181
g cone2_default
usemtl default
s 1
f 1//1 6//6 2//2
f 1//1 7//7 5//5
f 2//2 6//6 3//3
f 2//2 8//8 1//1
f 3//3 6//6 4//4
f 3//3 8//8 2//2
f 4//4 6//6 5//5
f 4//4 10//10 3//3
f 5//5 6//6 1//1
f 5//5 10//10 4//4
f 7//7 1//1 8//8
f 7//7 16//16 11//11
f 8//8 3//3 9//9
f 8//8 13//13 7//7
f 9//9 3//3 10//10
f 9//9 14//14 8//8
f 10//10 5//5 11//11
f 10//10 14//14 9//9
f 11//11 5//5 7//7
f 11//11 16//16 10//10
f 12//12 7//7 13//13
f 12//12 16//16 7//7
f 12//12 17//17 16//16
f 13//13 8//8 14//14
f 13//13 18//18 12//12
f 14//14 10//10 15//15
f 14//14 18//18 13//13
f 15//15 10//10 16//16
f 15//15 20//20 14//14
f 16//16 20//20 15//15
f 17//17 12//12 18//18
f 17//17 26//26 21//21
f 18//18 14//14 19//19
f 18//18 23//23 17//17
f 19//19 14//14 20//20
f 19//19 24//24 18//18
f 20//20 16//16 21//21
f 20//20 24//24 19//19
f 21//21 16//16 17//17
f 21//21 26//26 20//20
f 22//22 17//17 23//23
f 22//22 26//26 17//17
f 23//23 18//18 24//24
f 23//23 25//25 22//22
f 24//24 20//20 25//25
f 24//24 25//25 23//23
f 25//25 20//20 26//26
f 26//26 22//22 25//25
